<?xml version="1.0" encoding="UTF-8"?>
<!DOCTYPE svg PUBLIC "-//W3C//DTD SVG 1.1//EN" "http://www.w3.org/Graphics/SVG/1.1/DTD/svg11.dtd">
<!-- Creator: CorelDRAW -->
<svg xmlns="http://www.w3.org/2000/svg" xml:space="preserve" width="30px" height="30px" style="shape-rendering:geometricPrecision; text-rendering:geometricPrecision; image-rendering:optimizeQuality; fill-rule:evenodd; clip-rule:evenodd"
viewBox="0 0 1.7908 1.7908"
 xmlns:xlink="http://www.w3.org/1999/xlink">
 <defs>
  <style type="text/css">
   <![CDATA[
    .fil0 {fill:black}
    .fil1 {fill:white}
   ]]>
  </style>
 </defs>
 <g id="Layer_x0020_1">
  <metadata id="CorelCorpID_0Corel-Layer"/>
  <path class="fil0" d="M0.8954 0c0.494515,0 0.8954,0.400886 0.8954,0.8954 0,0.494515 -0.400886,0.8954 -0.8954,0.8954 -0.494515,0 -0.8954,-0.400886 -0.8954,-0.8954 0,-0.494515 0.400886,-0.8954 0.8954,-0.8954z"/>
  <path class="fil1" d="M1.33154 0.653995l-0.271158 0 0 -0.0673313 0.271158 0 0 0.0673313zm-0.451648 0.276235c0.0175555,0.0270735 0.0262275,0.0599284 0.0262275,0.0985645 0,0.0399757 -0.00987055,0.0757918 -0.0298937,0.107448 -0.0127612,0.0209397 -0.0286246,0.0386362 -0.0476607,0.052878 -0.0213627,0.0164979 -0.0468146,0.0277786 -0.0759328,0.0337714 -0.0292591,0.00606334 -0.0609859,0.00916552 -0.0951098,0.00916552l-0.303167 0 0 -0.673313 0.325094 0c0.0819961,0.00133958 0.140091,0.0250289 0.174427,0.0717025 0.0205872,0.0286246 0.0308102,0.0628895 0.0308102,0.102865 0,0.0411743 -0.0102936,0.0740292 -0.0311628,0.0990581 -0.0114921,0.0140303 -0.0286246,0.026862 -0.0512564,0.0383542 0.0342649,0.0125497 0.0602104,0.0322908 0.0776249,0.0595053zm-0.115626 0.088976c0,-0.0350405 -0.0143123,-0.0591528 -0.0427959,-0.0721256 -0.0160044,-0.00740292 -0.0384952,-0.0111396 -0.0673313,-0.0114216l-0.144533 0 0 0.179433 0.142347 0c0.0291181,0 0.0517499,-0.00380721 0.0681068,-0.0117742 0.0294707,-0.0147353 0.044206,-0.0426549 0.044206,-0.0841112zm-0.25466 -0.195014l0.142489 0c0.0293296,0 0.0529485,-0.00556981 0.0711385,-0.0167094 0.0182605,-0.0110691 0.027285,-0.0308102 0.027285,-0.0592233 0,-0.0313038 -0.0119857,-0.0521024 -0.0361685,-0.062114 -0.0207282,-0.00683888 -0.0472377,-0.0105756 -0.0793875,-0.0105756l-0.125356 0 0 0.148622zm0.922474 0.0855213c0.00274965,0.01819 0.00415973,0.0432189 0.00430074,0.0750867l0 0.00726191c0,0.00437125 -7.0504e-005,0.008813 -0.000141008,0.0133958l-0.351039 0c0.00190361,0.0483657 0.018613,0.0823486 0.0503398,0.101667 0.0191066,0.0121972 0.0423024,0.01819 0.0694464,0.01819 0.0286951,0 0.0520319,-0.00726191 0.0700104,-0.0221382 0.00980005,-0.00796695 0.0184015,-0.0190361 0.0259455,-0.0331369l0.12874 0c-0.00345469,0.0286246 -0.0189656,0.0576722 -0.0467441,0.0872134 -0.0431484,0.0468146 -0.103711,0.070363 -0.181477,0.070363 -0.0640881,0 -0.120703,-0.0198116 -0.169844,-0.0592938 -0.0489297,-0.0396937 -0.0735356,-0.103993 -0.0735356,-0.193251 0,-0.0836177 0.0220677,-0.147706 0.0663442,-0.192194 0.044488,-0.04477 0.101878,-0.0669083 0.172523,-0.0669083 0.0419499,0 0.07974,0.00740292 0.113441,0.0225613 0.0336304,0.0150173 0.0613384,0.0387772 0.0832652,0.07135 0.0197411,0.0287656 0.0325023,0.061973 0.0384247,0.0998336zm-0.126625 0.0125497c-0.00239713,-0.0334894 -0.0136073,-0.0588708 -0.0337009,-0.0762853 -0.0200231,-0.017344 -0.044911,-0.026157 -0.0748047,-0.026157 -0.0323613,0 -0.0573902,0.00937703 -0.0752277,0.0277786 -0.0178375,0.0182605 -0.0290476,0.0431484 -0.0335599,0.0746637l0.217293 0z"/>
 </g>
</svg>
