<?xml version="1.0" encoding="UTF-8"?>
<!DOCTYPE svg PUBLIC "-//W3C//DTD SVG 1.1//EN" "http://www.w3.org/Graphics/SVG/1.1/DTD/svg11.dtd">
<!-- Creator: CorelDRAW -->
<svg xmlns="http://www.w3.org/2000/svg" xml:space="preserve" width="30px" height="30px" style="shape-rendering:geometricPrecision; text-rendering:geometricPrecision; image-rendering:optimizeQuality; fill-rule:evenodd; clip-rule:evenodd"
viewBox="0 0 1.51247 1.51247"
 xmlns:xlink="http://www.w3.org/1999/xlink">
 <defs>
  <style type="text/css">
   <![CDATA[
    .fil0 {fill:black}
    .fil1 {fill:white}
   ]]>
  </style>
 </defs>
 <g id="Layer_x0020_1">
  <metadata id="CorelCorpID_0Corel-Layer"/>
  <path class="fil0" d="M0.756234 0c0.417656,0 0.756234,0.338579 0.756234,0.756234 0,0.417656 -0.338579,0.756234 -0.756234,0.756234 -0.417656,0 -0.756234,-0.338579 -0.756234,-0.756234 0,-0.417656 0.338579,-0.756234 0.756234,-0.756234z"/>
  <path class="fil1" d="M0.930704 0.642502l-0.110041 0 0 -0.0731821c0.00803871,-0.0691925 0.122308,-0.0560328 0.122308,-0.0560328l5.9546e-005 -0.00476368 -5.9546e-005 -0.000535914 0 -0.113614 0 0 0 0 -0.000119092 0c-0.00393004,-0.000952736 -0.227287,-0.0539487 -0.271649,0.116055 0,0 0,5.9546e-005 -5.9546e-005,0.000119092 -0.000119092,0.000357276 -0.000178638,0.000714552 -0.00029773,0.00113137 -0.00690734,0.0212579 -0.00649052,0.118556 -0.00637142,0.130823l-0.0953927 0 0 0.130168 0.101288 0 0 0.354001 0.147495 0 0 -0.354001 0.11284 0 0.0126833 -0.130168c0,0 -0.0126833,0 -0.0126833,0z"/>
 </g>
</svg>
