<?xml version="1.0" encoding="UTF-8"?>
<!DOCTYPE svg PUBLIC "-//W3C//DTD SVG 1.1//EN" "http://www.w3.org/Graphics/SVG/1.1/DTD/svg11.dtd">
<!-- Creator: CorelDRAW -->
<svg xmlns="http://www.w3.org/2000/svg" xml:space="preserve" width="30px" height="30px" style="shape-rendering:geometricPrecision; text-rendering:geometricPrecision; image-rendering:optimizeQuality; fill-rule:evenodd; clip-rule:evenodd"
viewBox="0 0 2.22477 2.22477"
 xmlns:xlink="http://www.w3.org/1999/xlink">
 <defs>
  <style type="text/css">
   <![CDATA[
    .fil0 {fill:black}
    .fil1 {fill:white}
   ]]>
  </style>
 </defs>
 <g id="Layer_x0020_1">
  <metadata id="CorelCorpID_0Corel-Layer"/>
  <path class="fil0" d="M1.11238 0c0.614351,0 1.11238,0.498032 1.11238,1.11238 0,0.614351 -0.498032,1.11238 -1.11238,1.11238 -0.614351,0 -1.11238,-0.498032 -1.11238,-1.11238 0,-0.614351 0.498032,-1.11238 1.11238,-1.11238z"/>
  <path class="fil1" d="M0.547958 1.59167l0.248228 0 0 -0.746873 -0.248228 0 0 0.746873zm1.14365 -0.428311l0 0.428311 -0.248315 0 0 -0.399582c0,-0.100377 -0.0359116,-0.168872 -0.125778,-0.168872 -0.0686699,0 -0.109399,0.0461595 -0.127355,0.09083 -0.00656919,0.0159412 -0.00823338,0.0381013 -0.00823338,0.0605241l0 0.4171 -0.248403 0c0,0 0.00332839,-0.676802 0,-0.746873l0.248403 0 0 0.105808c-0.000525535,0.000875892 -0.00122625,0.00166419 -0.00166419,0.0024525l0.00166419 0 0 -0.0024525c0.0329335,-0.0508017 0.0918811,-0.123326 0.22379,-0.123326 0.163441,0 0.285891,0.106684 0.285891,0.33608zm-1.01796 -0.678641c-0.0849615,0 -0.140493,0.0557943 -0.140493,0.129019 0,0.0717356 0.0539549,0.129106 0.137252,0.129106l0.00166419 0c0.0866257,0 0.140405,-0.0573709 0.140405,-0.129106 -0.00157661,-0.0732246 -0.0537798,-0.129019 -0.138829,-0.129019z"/>
 </g>
</svg>
