<?xml version="1.0" encoding="UTF-8"?>
<!DOCTYPE svg PUBLIC "-//W3C//DTD SVG 1.1//EN" "http://www.w3.org/Graphics/SVG/1.1/DTD/svg11.dtd">
<!-- Creator: CorelDRAW -->
<svg xmlns="http://www.w3.org/2000/svg" xml:space="preserve" width="243px" height="31px" style="shape-rendering:geometricPrecision; text-rendering:geometricPrecision; image-rendering:optimizeQuality; fill-rule:evenodd; clip-rule:evenodd"
viewBox="0 0 6.65481 0.838051"
 xmlns:xlink="http://www.w3.org/1999/xlink">
 <defs>
  <style type="text/css">
   <![CDATA[
    .fil0 {fill:white}
   ]]>
  </style>
 </defs>
 <g id="Layer_x0020_1">
  <metadata id="CorelCorpID_0Corel-Layer"/>
  <path class="fil0" d="M3.07992 0.837079c-0.223435,0 -0.413048,-0.168589 -0.413048,-0.419722 0,-0.24582 0.176849,-0.417357 0.417357,-0.417357 0.182357,0 0.323247,0.100622 0.374918,0.232052l-0.190585 0.0518983c-0.0306466,-0.0518983 -0.0909678,-0.102792 -0.192756,-0.102792 -0.130297,0 -0.214008,0.0963132 -0.214008,0.236199 0,0.141862 0.0933327,0.239536 0.235227,0.235227 0.109045,-0.00314241 0.165252,-0.03813 0.188447,-0.0699752l0 -0.0666061 -0.222463 0 0 -0.148341 0.388881 0 0 0.314565c-0.0687766,0.0974794 -0.210833,0.154853 -0.37197,0.154853zm-2.02669 -0.047946l0 -0.780678 -0.324219 0 0 0.166418 0.135577 0 0 0.61426 0.188642 0zm0.3433 -0.506187l0.00411429 -0.107069 0.345438 0 0 -0.167422 -0.513832 0 -0.0139627 0.432292 0.26921 0c0.0679991,0 0.112382,0.03813 0.112382,0.097447 0,0.0646623 -0.0455811,0.106907 -0.112382,0.106907 -0.0550083,0 -0.105708,-0.0296747 -0.119671,-0.102566l-0.179992 0.0485291c0.0273098,0.143255 0.152488,0.218316 0.29652,0.218316 0.180186,0 0.296714,-0.11222 0.296714,-0.273325 0,-0.152682 -0.10276,-0.252105 -0.275495,-0.252105l-0.109045 0 0 -0.00100427zm-0.989761 0.209667l-0.211837 0 0.211837 -0.298658 0 0.298658zm0.27569 0.154658l0 -0.154658 -0.094337 0 0 -0.485162 -0.238531 0 -0.349585 0.466113 0 0.172703 0.406764 0 0 0.144065 0.181353 0 0 -0.144065 0.094337 0 0 0.00100427zm1.37624 0.0349552l-0.050894 0.130297 -0.20769 0 0.30517 -0.788161 0.103764 0 0 0.273325 -0.0858817 0.211837 0.0858817 0 0 0.172703 -0.15035 0zm0.372975 0l0.0496954 0.130297 0.208889 0 -0.305364 -0.788161 -0.103732 0 0 0.273325 0.084683 0.211837 -0.084683 0 0 0.172703 0.150512 0zm3.9284 -0.178988l0.294738 -0.477678 -0.201406 0 -0.12615 0.213781c-0.0285084,0.0489179 -0.0518983,0.0921665 -0.0528702,0.0933327l-0.00411429 0c-0.00119865,-0.00116625 -0.0245561,-0.043443 -0.0530646,-0.0933327l-0.122036 -0.21498 -0.21809 0.00119865 0.294544 0.477678 0 0.31045 0.189613 0 0 -0.31045 -0.00116625 0zm-0.641958 0.0286704c-0.0318452,0.0666385 -0.0974794,0.121841 -0.203382,0.121841 -0.123785,0 -0.212809,-0.0933327 -0.212809,-0.235421 0,-0.139691 0.0825125,-0.236166 0.213781,-0.236166 0.0858817,0 0.151516,0.0380976 0.192983,0.102954l0.190585 -0.0520603c-0.0540364,-0.130297 -0.189613,-0.232085 -0.374918,-0.232085 -0.240702,0 -0.417551,0.171763 -0.417551,0.416385 0,0.2523 0.176849,0.420694 0.417551,0.420694 0.174679,0 0.323052,-0.097447 0.382402,-0.254243l-0.188642 -0.0518983zm-0.902713 0.280614l0.19295 0 0 -0.788161 -0.189808 0 0 0.273325c0,0.0856873 0.00116625,0.18767 0.00116625,0.188642l-0.00314241 0 -0.335816 -0.461966 -0.191784 0 0 0.788161 0.189613 0 0 -0.269988c0,-0.102954 -0.00213813,-0.199267 -0.00213813,-0.200434l0.00314241 0 0.335816 0.470422zm-1.23325 0l0.580665 0 0 -0.175683 -0.391019 0 0 -0.144227 0.284112 0 0 -0.157963 -0.284112 0 0 -0.135415 0.385706 0 0 -0.174873 -0.575352 0 0 0.788161z"/>
 </g>
</svg>
