<?xml version="1.0" encoding="UTF-8"?>
<!DOCTYPE svg PUBLIC "-//W3C//DTD SVG 1.1//EN" "http://www.w3.org/Graphics/SVG/1.1/DTD/svg11.dtd">
<!-- Creator: CorelDRAW -->
<svg xmlns="http://www.w3.org/2000/svg" xml:space="preserve" width="37px" height="37px" style="shape-rendering:geometricPrecision; text-rendering:geometricPrecision; image-rendering:optimizeQuality; fill-rule:evenodd; clip-rule:evenodd"
viewBox="0 0 24.6033 24.5087"
 xmlns:xlink="http://www.w3.org/1999/xlink">
 <defs>
  <style type="text/css">
   <![CDATA[
    .fil0 {fill:#5EB3F5}
   ]]>
  </style>
 </defs>
 <g id="Layer_x0020_1">
  <metadata id="CorelCorpID_0Corel-Layer"/>
  <path class="fil0" d="M0.0484887 0l0.646777 0 0 0.710907 -0.646777 0 0 -0.710907zm23.8596 23.7978l0.646777 0 0 0.710907 -0.646777 0 0 -0.710907zm-4.01127 0l0.646777 0 0 0.710907 -0.646777 0 0 -0.710907zm-4.00736 0l0.646777 0 0 0.710907 -0.646777 0 0 -0.710907zm-3.94635 0l0.646777 0 0 0.710907 -0.646777 0 0 -0.710907zm-3.99719 -0.0398859l0.646777 0 0 0.710907 -0.646777 0 0 -0.710907zm-3.97294 0l0.646777 0 0 0.710907 -0.646777 0 0 -0.710907zm-3.97294 0l0.646777 0 0 0.710907 -0.646777 0 0 -0.710907zm23.9323 -3.89317l0.646777 0 0 0.710907 -0.646777 0 0 -0.710907zm-4.01127 0l0.646777 0 0 0.710907 -0.646777 0 0 -0.710907zm-4.00736 0l0.646777 0 0 0.710907 -0.646777 0 0 -0.710907zm-3.94635 0l0.646777 0 0 0.710907 -0.646777 0 0 -0.710907zm-3.99719 -0.0398859l0.646777 0 0 0.710907 -0.646777 0 0 -0.710907zm-3.97294 0l0.646777 0 0 0.710907 -0.646777 0 0 -0.710907zm-3.97294 0l0.646777 0 0 0.710907 -0.646777 0 0 -0.710907zm23.9002 -4.00814l0.646777 0 0 0.710907 -0.646777 0 0 -0.710907zm-4.01127 0l0.646777 0 0 0.710907 -0.646777 0 0 -0.710907zm-4.00736 0l0.646777 0 0 0.710907 -0.646777 0 0 -0.710907zm-3.94635 0l0.646777 0 0 0.710907 -0.646777 0 0 -0.710907zm-3.99719 -0.0398859l0.646777 0 0 0.710907 -0.646777 0 0 -0.710907zm-3.97294 0l0.646777 0 0 0.710907 -0.646777 0 0 -0.710907zm-3.97294 0l0.646777 0 0 0.710907 -0.646777 0 0 -0.710907zm23.8995 -3.82279l0.646777 0 0 0.710907 -0.646777 0 0 -0.710907zm-4.01127 0l0.646777 0 0 0.710907 -0.646777 0 0 -0.710907zm-4.00736 0l0.646777 0 0 0.710907 -0.646777 0 0 -0.710907zm-3.94635 0l0.646777 0 0 0.710907 -0.646777 0 0 -0.710907zm-3.99719 -0.0398859l0.646777 0 0 0.710907 -0.646777 0 0 -0.710907zm-3.97294 0l0.646777 0 0 0.710907 -0.646777 0 0 -0.710907zm-3.97294 0l0.646777 0 0 0.710907 -0.646777 0 0 -0.710907zm23.9323 -3.89317l0.646777 0 0 0.710907 -0.646777 0 0 -0.710907zm-4.01127 0l0.646777 0 0 0.710907 -0.646777 0 0 -0.710907zm-4.00736 0l0.646777 0 0 0.710907 -0.646777 0 0 -0.710907zm-3.94635 0l0.646777 0 0 0.710907 -0.646777 0 0 -0.710907zm-3.99719 -0.0398859l0.646777 0 0 0.710907 -0.646777 0 0 -0.710907zm-3.97294 0l0.646777 0 0 0.710907 -0.646777 0 0 -0.710907zm-3.97294 0l0.646777 0 0 0.710907 -0.646777 0 0 -0.710907zm23.9002 -4.00814l0.646777 0 0 0.710907 -0.646777 0 0 -0.710907zm-4.01127 0l0.646777 0 0 0.710907 -0.646777 0 0 -0.710907zm-4.00736 0l0.646777 0 0 0.710907 -0.646777 0 0 -0.710907zm-3.94635 0l0.646777 0 0 0.710907 -0.646777 0 0 -0.710907zm-3.99719 -0.0398859l0.646777 0 0 0.710907 -0.646777 0 0 -0.710907zm-3.97294 0l0.646777 0 0 0.710907 -0.646777 0 0 -0.710907zm-3.97294 0l0.646777 0 0 0.710907 -0.646777 0 0 -0.710907zm23.9323 -3.89317l0.646777 0 0 0.710907 -0.646777 0 0 -0.710907zm-4.01127 0l0.646777 0 0 0.710907 -0.646777 0 0 -0.710907zm-4.00736 0l0.646777 0 0 0.710907 -0.646777 0 0 -0.710907zm-3.94635 0l0.646777 0 0 0.710907 -0.646777 0 0 -0.710907zm-3.99719 -0.0398859l0.646777 0 0 0.710907 -0.646777 0 0 -0.710907zm-3.97294 0l0.646777 0 0 0.710907 -0.646777 0 0 -0.710907z"/>
 </g>
</svg>
